<?xml version="1.0" standalone="no"?>
<!DOCTYPE svg PUBLIC "-//W3C//DTD SVG 20010904//EN"
 "http://www.w3.org/TR/2001/REC-SVG-20010904/DTD/svg10.dtd">
<svg version="1.0" xmlns="http://www.w3.org/2000/svg"
 width="696.000000pt" height="696.000000pt" viewBox="0 0 696.000000 696.000000"
 preserveAspectRatio="xMidYMid meet">
<metadata>
Created by potrace 1.14, written by Peter Selinger 2001-2017
</metadata>
<g transform="translate(0.000000,696.000000) scale(0.100000,-0.100000)"
fill="#000000" stroke="none">
<path d="M1829 6956 c-2 -2 -33 -6 -69 -10 -65 -6 -96 -10 -157 -21 -86 -14
-99 -16 -113 -21 -8 -3 -26 -8 -38 -10 -80 -15 -258 -70 -385 -118 -64 -25
-76 -26 -272 -26 l-205 0 0 -3375 0 -3375 200 0 200 0 0 1923 0 1923 123 66
c105 58 267 136 282 137 3 1 21 7 40 15 53 23 248 84 285 91 18 3 36 7 39 9 3
2 22 7 41 10 19 3 46 8 60 11 62 15 215 34 320 41 47 3 333 7 635 9 303 2 564
6 580 8 17 3 62 8 100 11 39 4 79 9 90 11 11 2 40 7 65 10 25 3 81 12 125 21
44 8 94 17 110 19 17 3 98 23 180 45 83 22 159 42 169 45 25 6 87 25 106 32 8
3 49 18 90 33 156 57 181 67 193 79 6 6 17 11 25 11 13 0 261 118 272 130 3 3
25 16 50 29 86 46 341 219 370 251 3 3 28 23 55 45 28 21 104 93 170 160 111
111 156 161 227 254 16 20 35 45 44 56 8 11 23 32 32 48 9 15 20 27 24 27 4 0
8 5 8 11 0 6 13 30 30 54 16 23 44 69 61 101 18 33 35 61 38 64 13 11 113 223
156 330 10 25 23 59 30 75 16 37 94 283 100 314 2 12 7 31 10 41 3 10 8 29 11
42 3 13 7 32 9 43 3 11 7 30 9 43 3 13 8 32 11 43 5 14 -31 0 -157 -64 -90
-45 -194 -96 -233 -114 -128 -58 -210 -94 -215 -95 -3 -1 -21 -8 -40 -16 -49
-20 -302 -113 -320 -117 -8 -2 -43 -12 -77 -23 -35 -11 -63 -18 -63 -15 0 3
-6 0 -14 -6 -8 -6 -18 -11 -22 -10 -5 1 -16 -1 -24 -4 -20 -8 -186 -47 -219
-52 -14 -2 -37 -6 -51 -9 -24 -6 -50 -10 -115 -21 -32 -6 -94 -12 -185 -20
-73 -7 -301 -8 -370 -2 -79 7 -144 16 -230 34 -41 8 -82 16 -90 18 -89 18
-448 172 -458 197 -2 4 -8 8 -13 8 -5 0 -69 39 -142 87 -72 49 -136 90 -142
92 -5 2 -40 23 -76 47 -186 119 -467 239 -629 268 -14 2 -25 5 -25 6 0 3 -77
17 -140 26 -11 1 -20 3 -20 4 0 8 -458 23 -466 16z m-960 -3580 l1 -3254 -79
0 -79 0 0 3246 c0 1786 2 3250 4 3254 3 5 38 8 79 8 l73 0 1 -3254z"/>
</g>
</svg>
